<?xml version="1.0" encoding="iso-8859-1"?>
<!-- Generator: Adobe Illustrator 19.0.0, SVG Export Plug-In . SVG Version: 6.00 Build 0)  -->
<svg version="1.1" id="Layer_1" xmlns="http://www.w3.org/2000/svg" xmlns:xlink="http://www.w3.org/1999/xlink" x="0px" y="0px"
	 viewBox="0 0 512 512" style="enable-background:new 0 0 512 512;" xml:space="preserve">
<g>
	<path style="fill:#20AAB0;" d="M236.754,160.11c0-9.314-7.551-16.865-16.865-16.865c-9.314,0-16.865,7.551-16.865,16.865
		c0,2.673,0,40.493,0,40.493l16.865,11.277l16.865-11.15V160.11z"/>
	<path style="fill:#20AAB0;" d="M186.159,50.528c0-9.314-7.551-16.865-16.865-16.865c-9.314,0-16.865,7.551-16.865,16.865
		c0,2.673,0,40.493,0,40.493l16.865,11.277l16.865-11.15V50.528z"/>
	<path style="fill:#20AAB0;" d="M34.375,102.184c0-9.314-7.551-16.865-16.865-16.865S0.645,92.87,0.645,102.184
		c0,2.673,0,40.493,0,40.493l16.865,11.277l16.865-11.15V102.184z"/>
	<path style="fill:#20AAB0;" d="M135.564,16.865C135.564,7.551,128.013,0,118.7,0s-16.865,7.551-16.865,16.865
		c0,2.673,0,40.493,0,40.493L118.7,68.634l16.865-11.15V16.865z"/>
	<path style="fill:#20AAB0;" d="M84.97,50.528c0-9.314-7.551-16.865-16.865-16.865S51.24,41.214,51.24,50.528
		c0,2.673,0,40.493,0,40.493l16.865,11.277l16.865-11.15V50.528z"/>
</g>
<path style="fill:#086063;" d="M203.024,200.729v40.087h-16.865V91.147h-33.73v96.647h-16.865V57.485h-33.73v130.309H84.97V91.147
	H51.24v96.647H34.375v-44.991H0.645l0.001,141.643c-0.132,28.222,8.689,54.199,24.951,74.724V512h186.203V359.169
	c16.262-20.523,25.083-46.502,24.951-74.724l0.001-83.716H203.024z"/>
<g>
	<polygon style="fill:#20AAB0;" points="61.425,298.155 61.425,376.853 78.029,376.918 78.29,298.22 	"/>
	<polygon style="fill:#20AAB0;" points="175.557,376.918 158.692,376.852 158.952,298.609 175.816,298.675 	"/>
	<rect x="109.925" y="248.217" style="fill:#20AAB0;" width="16.865" height="128.668"/>
</g>
<g>
	<circle style="fill:#71CCCE;" cx="69.933" cy="292.561" r="16.865"/>
	<circle style="fill:#71CCCE;" cx="167.457" cy="293.022" r="16.865"/>
	<path style="fill:#71CCCE;" d="M135.797,242.677c-0.044,9.314-8.123,16.83-17.437,16.786c-9.314-0.044-16.335-7.629-16.291-16.944
		c0.044-9.315,7.629-16.83,16.944-16.786S135.841,233.362,135.797,242.677z"/>
</g>
<rect x="50.182" y="365.642" style="fill:#14858A;" width="136.617" height="146.354"/>
<g>
	<path style="fill:#20AAB0;" d="M275.246,162.358c0-10.556,8.557-19.114,19.114-19.114s19.114,8.557,19.114,19.114
		c0,3.029,0,38.371,0,38.371l-19.114,11.243l-19.114-11.243V162.358z"/>
	<path style="fill:#20AAB0;" d="M324.717,52.777c0-10.556,8.557-19.114,19.114-19.114s19.114,8.557,19.114,19.114
		c0,3.029,0,38.371,0,38.371l-19.114,11.243l-19.114-11.243V52.777z"/>
	<path style="fill:#20AAB0;" d="M473.128,104.433c0-10.556,8.557-19.114,19.114-19.114s19.114,8.557,19.114,19.114
		c0,3.029,0,38.371,0,38.371l-19.114,11.243l-19.114-11.243V104.433z"/>
	<path style="fill:#20AAB0;" d="M374.187,19.114C374.187,8.557,382.744,0,393.3,0s19.114,8.557,19.114,19.114
		c0,3.029,0,38.371,0,38.371L393.3,68.728l-19.114-11.243V19.114z"/>
	<path style="fill:#20AAB0;" d="M423.657,52.777c0-10.556,8.557-19.114,19.114-19.114s19.114,8.557,19.114,19.114
		c0,3.029,0,38.371,0,38.371l-19.114,11.243l-19.114-11.243V52.777z"/>
</g>
<path style="fill:#086063;" d="M313.473,200.729v40.087h11.243V91.147h38.227v96.647h11.243V57.485h38.227v130.309h11.243V91.147
	h38.227v96.647h11.243v-44.991h38.227l-0.001,141.643c0.132,28.222-8.689,54.199-24.951,74.724V512H300.199V359.169
	c-16.262-20.523-25.083-46.502-24.951-74.724l-0.001-83.716H313.473z"/>
<g>
	<polygon style="fill:#20AAB0;" points="450.575,298.155 450.575,376.853 433.971,376.918 433.71,298.22 	"/>
	<polygon style="fill:#20AAB0;" points="336.444,376.918 353.309,376.852 353.048,298.609 336.184,298.675 	"/>
	<rect x="385.205" y="248.217" style="fill:#20AAB0;" width="16.865" height="128.668"/>
</g>
<g>
	<circle style="fill:#71CCCE;" cx="442.062" cy="292.561" r="16.865"/>
	<circle style="fill:#71CCCE;" cx="344.538" cy="293.022" r="16.865"/>
	<path style="fill:#71CCCE;" d="M376.203,242.677c0.044,9.314,8.123,16.83,17.437,16.786c9.314-0.044,16.335-7.629,16.291-16.944
		s-7.629-16.83-16.944-16.786S376.159,233.362,376.203,242.677z"/>
</g>
<rect x="325.2" y="365.642" style="fill:#14858A;" width="136.617" height="146.354"/>
<g>
</g>
<g>
</g>
<g>
</g>
<g>
</g>
<g>
</g>
<g>
</g>
<g>
</g>
<g>
</g>
<g>
</g>
<g>
</g>
<g>
</g>
<g>
</g>
<g>
</g>
<g>
</g>
<g>
</g>
</svg>
